<mxfile host="app.diagrams.net" agent="Mozilla/5.0 (Windows NT 10.0; Win64; x64) AppleWebKit/537.36 (KHTML, like Gecko) Chrome/128.0.0.0 Safari/537.36 OPR/114.0.0.0" version="25.0.3" pages="2">
  <diagram name="Página-1" id="TTJXvDXbEdD2h8pol91i">
    <mxGraphModel dx="1191" dy="1103" grid="1" gridSize="10" guides="1" tooltips="1" connect="1" arrows="1" fold="1" page="1" pageScale="1" pageWidth="1169" pageHeight="827" math="0" shadow="0">
      <root>
        <mxCell id="0" />
        <mxCell id="1" parent="0" />
        <mxCell id="XKSJ-D6BxnCFHiiLzyZx-17" style="edgeStyle=orthogonalEdgeStyle;rounded=0;orthogonalLoop=1;jettySize=auto;html=1;exitX=0.5;exitY=1;exitDx=0;exitDy=0;entryX=0.5;entryY=0;entryDx=0;entryDy=0;" parent="1" source="XKSJ-D6BxnCFHiiLzyZx-1" target="XKSJ-D6BxnCFHiiLzyZx-2" edge="1">
          <mxGeometry relative="1" as="geometry" />
        </mxCell>
        <mxCell id="XKSJ-D6BxnCFHiiLzyZx-20" value="HTTPS sobre TCP" style="edgeLabel;html=1;align=center;verticalAlign=middle;resizable=0;points=[];" parent="XKSJ-D6BxnCFHiiLzyZx-17" vertex="1" connectable="0">
          <mxGeometry x="-0.04" y="4" relative="1" as="geometry">
            <mxPoint as="offset" />
          </mxGeometry>
        </mxCell>
        <mxCell id="XKSJ-D6BxnCFHiiLzyZx-1" value="Paciente en Casa&lt;div&gt;(Navegador Web)&lt;/div&gt;" style="ellipse;whiteSpace=wrap;html=1;fillColor=#bac8d3;strokeColor=#23445d;" parent="1" vertex="1">
          <mxGeometry x="230" y="60" width="120" height="80" as="geometry" />
        </mxCell>
        <mxCell id="XKSJ-D6BxnCFHiiLzyZx-15" style="edgeStyle=orthogonalEdgeStyle;rounded=0;orthogonalLoop=1;jettySize=auto;html=1;exitX=1;exitY=0.5;exitDx=0;exitDy=0;" parent="1" source="XKSJ-D6BxnCFHiiLzyZx-2" target="XKSJ-D6BxnCFHiiLzyZx-3" edge="1">
          <mxGeometry relative="1" as="geometry" />
        </mxCell>
        <mxCell id="XKSJ-D6BxnCFHiiLzyZx-22" value="HTTPS" style="edgeLabel;html=1;align=center;verticalAlign=middle;resizable=0;points=[];" parent="XKSJ-D6BxnCFHiiLzyZx-15" vertex="1" connectable="0">
          <mxGeometry x="-0.02" y="-1" relative="1" as="geometry">
            <mxPoint x="-8" y="-1" as="offset" />
          </mxGeometry>
        </mxCell>
        <mxCell id="XKSJ-D6BxnCFHiiLzyZx-2" value="Servidor Web&lt;div&gt;(Zona DMZ)&lt;/div&gt;" style="rounded=1;whiteSpace=wrap;html=1;fillColor=#b1ddf0;strokeColor=#10739e;" parent="1" vertex="1">
          <mxGeometry x="230" y="240" width="120" height="60" as="geometry" />
        </mxCell>
        <mxCell id="XKSJ-D6BxnCFHiiLzyZx-10" style="edgeStyle=orthogonalEdgeStyle;rounded=0;orthogonalLoop=1;jettySize=auto;html=1;exitX=0.75;exitY=0;exitDx=0;exitDy=0;entryX=0;entryY=0.5;entryDx=0;entryDy=0;" parent="1" source="XKSJ-D6BxnCFHiiLzyZx-3" target="XKSJ-D6BxnCFHiiLzyZx-6" edge="1">
          <mxGeometry relative="1" as="geometry" />
        </mxCell>
        <mxCell id="XKSJ-D6BxnCFHiiLzyZx-24" value="HTTPS sobre TCP" style="edgeLabel;html=1;align=center;verticalAlign=middle;resizable=0;points=[];" parent="XKSJ-D6BxnCFHiiLzyZx-10" vertex="1" connectable="0">
          <mxGeometry x="-0.05" y="-3" relative="1" as="geometry">
            <mxPoint x="48" y="-3" as="offset" />
          </mxGeometry>
        </mxCell>
        <mxCell id="XKSJ-D6BxnCFHiiLzyZx-13" style="edgeStyle=orthogonalEdgeStyle;rounded=0;orthogonalLoop=1;jettySize=auto;html=1;entryX=0;entryY=0.5;entryDx=0;entryDy=0;" parent="1" source="XKSJ-D6BxnCFHiiLzyZx-3" edge="1">
          <mxGeometry relative="1" as="geometry">
            <mxPoint x="740" y="310" as="sourcePoint" />
            <mxPoint x="1020" y="420" as="targetPoint" />
            <Array as="points">
              <mxPoint x="750" y="300" />
              <mxPoint x="750" y="420" />
            </Array>
          </mxGeometry>
        </mxCell>
        <mxCell id="XKSJ-D6BxnCFHiiLzyZx-27" value="TCP" style="edgeLabel;html=1;align=center;verticalAlign=middle;resizable=0;points=[];" parent="XKSJ-D6BxnCFHiiLzyZx-13" vertex="1" connectable="0">
          <mxGeometry x="0.2069" relative="1" as="geometry">
            <mxPoint x="-34" as="offset" />
          </mxGeometry>
        </mxCell>
        <mxCell id="XKSJ-D6BxnCFHiiLzyZx-14" style="edgeStyle=orthogonalEdgeStyle;rounded=0;orthogonalLoop=1;jettySize=auto;html=1;exitX=0.5;exitY=0;exitDx=0;exitDy=0;entryX=0;entryY=0.5;entryDx=0;entryDy=0;" parent="1" source="XKSJ-D6BxnCFHiiLzyZx-3" target="XKSJ-D6BxnCFHiiLzyZx-4" edge="1">
          <mxGeometry relative="1" as="geometry" />
        </mxCell>
        <mxCell id="XKSJ-D6BxnCFHiiLzyZx-23" value="HTTPS" style="edgeLabel;html=1;align=center;verticalAlign=middle;resizable=0;points=[];" parent="XKSJ-D6BxnCFHiiLzyZx-14" vertex="1" connectable="0">
          <mxGeometry x="-0.0606" relative="1" as="geometry">
            <mxPoint x="119" as="offset" />
          </mxGeometry>
        </mxCell>
        <mxCell id="XKSJ-D6BxnCFHiiLzyZx-3" value="Servidor Aplicación&lt;div&gt;(Lógica de Negocio)&lt;/div&gt;" style="rounded=1;whiteSpace=wrap;html=1;fillColor=#e51400;fontColor=#ffffff;strokeColor=#B20000;" parent="1" vertex="1">
          <mxGeometry x="550" y="240" width="120" height="60" as="geometry" />
        </mxCell>
        <mxCell id="XKSJ-D6BxnCFHiiLzyZx-4" value="Módulo SAC&lt;div&gt;(Urgencias)&lt;/div&gt;" style="rounded=1;whiteSpace=wrap;html=1;fillColor=#a0522d;fontColor=#ffffff;strokeColor=#6D1F00;" parent="1" vertex="1">
          <mxGeometry x="920" y="70" width="120" height="60" as="geometry" />
        </mxCell>
        <mxCell id="XKSJ-D6BxnCFHiiLzyZx-6" value="Servidor de Comunicación con Servicios Externos" style="rounded=1;whiteSpace=wrap;html=1;fillColor=#0050ef;fontColor=#ffffff;strokeColor=#001DBC;" parent="1" vertex="1">
          <mxGeometry x="920" y="170" width="120" height="60" as="geometry" />
        </mxCell>
        <mxCell id="XKSJ-D6BxnCFHiiLzyZx-7" value="Servidor de Agenda y Horarios" style="rounded=1;whiteSpace=wrap;html=1;fillColor=#0050ef;fontColor=#ffffff;strokeColor=#001DBC;" parent="1" vertex="1">
          <mxGeometry x="920" y="380" width="120" height="60" as="geometry" />
        </mxCell>
        <mxCell id="XKSJ-D6BxnCFHiiLzyZx-9" value="BD&lt;div&gt;(Historias, Citas, Pacientes)&lt;/div&gt;" style="shape=cylinder3;whiteSpace=wrap;html=1;boundedLbl=1;backgroundOutline=1;size=15;fillColor=#6d8764;fontColor=#ffffff;strokeColor=#3A5431;" parent="1" vertex="1">
          <mxGeometry x="920" y="260" width="120" height="90" as="geometry" />
        </mxCell>
        <mxCell id="XKSJ-D6BxnCFHiiLzyZx-30" style="edgeStyle=orthogonalEdgeStyle;rounded=0;orthogonalLoop=1;jettySize=auto;html=1;exitX=1;exitY=0.5;exitDx=0;exitDy=0;entryX=0;entryY=0.5;entryDx=0;entryDy=0;entryPerimeter=0;" parent="1" source="XKSJ-D6BxnCFHiiLzyZx-3" target="XKSJ-D6BxnCFHiiLzyZx-9" edge="1">
          <mxGeometry relative="1" as="geometry" />
        </mxCell>
        <mxCell id="XKSJ-D6BxnCFHiiLzyZx-31" value="SQL sobre TCP" style="edgeLabel;html=1;align=center;verticalAlign=middle;resizable=0;points=[];" parent="XKSJ-D6BxnCFHiiLzyZx-30" vertex="1" connectable="0">
          <mxGeometry x="0.1018" y="-4" relative="1" as="geometry">
            <mxPoint y="-19" as="offset" />
          </mxGeometry>
        </mxCell>
        <mxCell id="PlFTqp-aWQaYjzqZ-e2b-11" style="edgeStyle=orthogonalEdgeStyle;rounded=0;orthogonalLoop=1;jettySize=auto;html=1;exitX=0.5;exitY=0;exitDx=0;exitDy=0;entryX=0.25;entryY=1;entryDx=0;entryDy=0;" edge="1" parent="1" source="XKSJ-D6BxnCFHiiLzyZx-32" target="XKSJ-D6BxnCFHiiLzyZx-3">
          <mxGeometry relative="1" as="geometry">
            <Array as="points">
              <mxPoint x="280" y="360" />
              <mxPoint x="580" y="360" />
            </Array>
          </mxGeometry>
        </mxCell>
        <mxCell id="PlFTqp-aWQaYjzqZ-e2b-18" value="HTTPS sobre TCP" style="edgeLabel;html=1;align=center;verticalAlign=middle;resizable=0;points=[];" vertex="1" connectable="0" parent="PlFTqp-aWQaYjzqZ-e2b-11">
          <mxGeometry x="0.0511" y="1" relative="1" as="geometry">
            <mxPoint as="offset" />
          </mxGeometry>
        </mxCell>
        <mxCell id="XKSJ-D6BxnCFHiiLzyZx-32" value="Estación de Trabajo&lt;div&gt;Facultativo&lt;/div&gt;" style="rounded=1;whiteSpace=wrap;html=1;fillColor=#d5e8d4;strokeColor=#82b366;" parent="1" vertex="1">
          <mxGeometry x="220" y="470" width="120" height="60" as="geometry" />
        </mxCell>
        <mxCell id="PlFTqp-aWQaYjzqZ-e2b-13" style="edgeStyle=orthogonalEdgeStyle;rounded=0;orthogonalLoop=1;jettySize=auto;html=1;exitX=0.5;exitY=0;exitDx=0;exitDy=0;entryX=0.5;entryY=1;entryDx=0;entryDy=0;" edge="1" parent="1" source="XKSJ-D6BxnCFHiiLzyZx-33" target="XKSJ-D6BxnCFHiiLzyZx-3">
          <mxGeometry relative="1" as="geometry" />
        </mxCell>
        <mxCell id="PlFTqp-aWQaYjzqZ-e2b-16" value="HTTPS sobre TCP" style="edgeLabel;html=1;align=center;verticalAlign=middle;resizable=0;points=[];" vertex="1" connectable="0" parent="PlFTqp-aWQaYjzqZ-e2b-13">
          <mxGeometry x="-0.075" y="-1" relative="1" as="geometry">
            <mxPoint x="17" as="offset" />
          </mxGeometry>
        </mxCell>
        <mxCell id="XKSJ-D6BxnCFHiiLzyZx-33" value="Estación de Trabajo&lt;div&gt;Recepción/Admin.&lt;/div&gt;" style="rounded=1;whiteSpace=wrap;html=1;fillColor=#d5e8d4;strokeColor=#82b366;" parent="1" vertex="1">
          <mxGeometry x="400" y="470" width="120" height="60" as="geometry" />
        </mxCell>
        <mxCell id="PlFTqp-aWQaYjzqZ-e2b-14" style="edgeStyle=orthogonalEdgeStyle;rounded=0;orthogonalLoop=1;jettySize=auto;html=1;exitX=0.5;exitY=1;exitDx=0;exitDy=0;entryX=0.5;entryY=0;entryDx=0;entryDy=0;" edge="1" parent="1" source="XKSJ-D6BxnCFHiiLzyZx-37" target="XKSJ-D6BxnCFHiiLzyZx-40">
          <mxGeometry relative="1" as="geometry" />
        </mxCell>
        <mxCell id="PlFTqp-aWQaYjzqZ-e2b-19" value="IPP sobre TCP" style="edgeLabel;html=1;align=center;verticalAlign=middle;resizable=0;points=[];" vertex="1" connectable="0" parent="PlFTqp-aWQaYjzqZ-e2b-14">
          <mxGeometry x="-0.375" y="-1" relative="1" as="geometry">
            <mxPoint x="1" y="15" as="offset" />
          </mxGeometry>
        </mxCell>
        <mxCell id="XKSJ-D6BxnCFHiiLzyZx-37" value="Servidor Departamento" style="rounded=1;whiteSpace=wrap;html=1;fillColor=#e51400;fontColor=#ffffff;strokeColor=#B20000;" parent="1" vertex="1">
          <mxGeometry x="570" y="470" width="120" height="60" as="geometry" />
        </mxCell>
        <mxCell id="XKSJ-D6BxnCFHiiLzyZx-40" value="Impresora Láser&lt;div&gt;(Imprime Agendas)&lt;/div&gt;" style="rounded=1;whiteSpace=wrap;html=1;fillColor=#d5e8d4;strokeColor=#82b366;" parent="1" vertex="1">
          <mxGeometry x="570" y="610" width="120" height="60" as="geometry" />
        </mxCell>
        <mxCell id="XKSJ-D6BxnCFHiiLzyZx-49" value="" style="rounded=1;whiteSpace=wrap;html=1;fillColor=none;" parent="1" vertex="1">
          <mxGeometry x="140" y="340" width="560" height="360" as="geometry" />
        </mxCell>
        <mxCell id="XKSJ-D6BxnCFHiiLzyZx-61" value="Centro de Salud (LAN Interna)" style="text;strokeColor=none;align=center;fillColor=none;html=1;verticalAlign=middle;whiteSpace=wrap;rounded=0;" parent="1" vertex="1">
          <mxGeometry x="150" y="670" width="190" height="30" as="geometry" />
        </mxCell>
        <mxCell id="zW67hJ7bMi9Kcra7Foq8-1" style="edgeStyle=orthogonalEdgeStyle;rounded=0;orthogonalLoop=1;jettySize=auto;html=1;exitX=0.75;exitY=1;exitDx=0;exitDy=0;entryX=0.592;entryY=0;entryDx=0;entryDy=0;entryPerimeter=0;" edge="1" parent="1" source="XKSJ-D6BxnCFHiiLzyZx-3" target="XKSJ-D6BxnCFHiiLzyZx-37">
          <mxGeometry relative="1" as="geometry" />
        </mxCell>
        <mxCell id="zW67hJ7bMi9Kcra7Foq8-2" value="TCP" style="edgeLabel;html=1;align=center;verticalAlign=middle;resizable=0;points=[];" vertex="1" connectable="0" parent="zW67hJ7bMi9Kcra7Foq8-1">
          <mxGeometry x="0.041" y="4" relative="1" as="geometry">
            <mxPoint x="-5" as="offset" />
          </mxGeometry>
        </mxCell>
      </root>
    </mxGraphModel>
  </diagram>
  <diagram id="GmiIbUZyCdC2BHWAz24O" name="Página-2">
    <mxGraphModel dx="1191" dy="1103" grid="1" gridSize="10" guides="1" tooltips="1" connect="1" arrows="1" fold="1" page="1" pageScale="1" pageWidth="1169" pageHeight="827" math="0" shadow="0">
      <root>
        <mxCell id="0" />
        <mxCell id="1" parent="0" />
        <mxCell id="xlQtd-7WsjTyEUznH92s-1" value="Paciente en Casa&#xa;(Navegador Web)" style="ellipse;whiteSpace=wrap;html=1;fillColor=#bac8d3;strokeColor=#23445d;" vertex="1" parent="1">
          <mxGeometry x="230" y="60" width="120" height="80" as="geometry" />
        </mxCell>
        <mxCell id="xlQtd-7WsjTyEUznH92s-2" value="Servidor Web&#xa;(Zona DMZ)" style="rounded=1;whiteSpace=wrap;html=1;fillColor=#b1ddf0;strokeColor=#10739e;" vertex="1" parent="1">
          <mxGeometry x="230" y="240" width="120" height="60" as="geometry" />
        </mxCell>
        <mxCell id="xlQtd-7WsjTyEUznH92s-3" value="Servidor Aplicación&#xa;(Lógica de Negocio)" style="rounded=1;whiteSpace=wrap;html=1;fillColor=#e51400;fontColor=#ffffff;strokeColor=#B20000;" vertex="1" parent="1">
          <mxGeometry x="550" y="240" width="120" height="60" as="geometry" />
        </mxCell>
        <mxCell id="xlQtd-7WsjTyEUznH92s-4" value="BD&#xa;(Historias, Citas, Pacientes)" style="shape=cylinder3;whiteSpace=wrap;html=1;boundedLbl=1;backgroundOutline=1;size=15;fillColor=#6d8764;fontColor=#ffffff;strokeColor=#3A5431;" vertex="1" parent="1">
          <mxGeometry x="920" y="225" width="120" height="90" as="geometry" />
        </mxCell>
        <mxCell id="xlQtd-7WsjTyEUznH92s-5" value="Servidor Departamento" style="rounded=1;whiteSpace=wrap;html=1;fillColor=#e51400;fontColor=#ffffff;strokeColor=#B20000;" vertex="1" parent="1">
          <mxGeometry x="670" y="450" width="120" height="60" as="geometry" />
        </mxCell>
        <mxCell id="xlQtd-7WsjTyEUznH92s-6" value="Impresora Láser&#xa;(Imprime Agendas)" style="rounded=1;whiteSpace=wrap;html=1;fillColor=#d5e8d4;strokeColor=#82b366;" vertex="1" parent="1">
          <mxGeometry x="670" y="600" width="120" height="60" as="geometry" />
        </mxCell>
        <mxCell id="xlQtd-7WsjTyEUznH92s-7" value="Estación de Trabajo&#xa;Facultativo" style="rounded=1;whiteSpace=wrap;html=1;fillColor=#d5e8d4;strokeColor=#82b366;" vertex="1" parent="1">
          <mxGeometry x="220" y="470" width="120" height="60" as="geometry" />
        </mxCell>
        <mxCell id="xlQtd-7WsjTyEUznH92s-8" value="Estación de Trabajo&#xa;Recepción/Admin." style="rounded=1;whiteSpace=wrap;html=1;fillColor=#d5e8d4;strokeColor=#82b366;" vertex="1" parent="1">
          <mxGeometry x="230" y="570" width="120" height="60" as="geometry" />
        </mxCell>
        <mxCell id="xlQtd-7WsjTyEUznH92s-9" style="edgeStyle=orthogonalEdgeStyle;html=1;" edge="1" parent="1" source="xlQtd-7WsjTyEUznH92s-1" target="xlQtd-7WsjTyEUznH92s-2">
          <mxGeometry relative="1" as="geometry" />
        </mxCell>
        <mxCell id="xlQtd-7WsjTyEUznH92s-10" style="edgeStyle=orthogonalEdgeStyle;html=1;" edge="1" parent="1" source="xlQtd-7WsjTyEUznH92s-2" target="xlQtd-7WsjTyEUznH92s-3">
          <mxGeometry relative="1" as="geometry" />
        </mxCell>
        <mxCell id="xlQtd-7WsjTyEUznH92s-11" style="edgeStyle=orthogonalEdgeStyle;html=1;" edge="1" parent="1" source="xlQtd-7WsjTyEUznH92s-3" target="xlQtd-7WsjTyEUznH92s-4">
          <mxGeometry relative="1" as="geometry" />
        </mxCell>
        <mxCell id="xlQtd-7WsjTyEUznH92s-12" style="edgeStyle=orthogonalEdgeStyle;html=1;" edge="1" parent="1" source="xlQtd-7WsjTyEUznH92s-3" target="xlQtd-7WsjTyEUznH92s-5">
          <mxGeometry relative="1" as="geometry" />
        </mxCell>
        <mxCell id="xlQtd-7WsjTyEUznH92s-13" style="edgeStyle=orthogonalEdgeStyle;html=1;" edge="1" parent="1" source="xlQtd-7WsjTyEUznH92s-5" target="xlQtd-7WsjTyEUznH92s-6">
          <mxGeometry relative="1" as="geometry" />
        </mxCell>
        <mxCell id="xlQtd-7WsjTyEUznH92s-14" style="edgeStyle=orthogonalEdgeStyle;html=1;" edge="1" parent="1" source="xlQtd-7WsjTyEUznH92s-7" target="xlQtd-7WsjTyEUznH92s-3">
          <mxGeometry relative="1" as="geometry" />
        </mxCell>
        <mxCell id="xlQtd-7WsjTyEUznH92s-15" style="edgeStyle=orthogonalEdgeStyle;html=1;" edge="1" parent="1" source="xlQtd-7WsjTyEUznH92s-8" target="xlQtd-7WsjTyEUznH92s-3">
          <mxGeometry relative="1" as="geometry" />
        </mxCell>
      </root>
    </mxGraphModel>
  </diagram>
</mxfile>
